ffmpeg started on 2025-05-05 at 10:57:23
Report written to "D:\Convert\FFMetrics\reports\ssim_report-6.txt"
Log level: 32
Command line:
ffmpeg -hide_banner -nostdin -i "G:\\\xc0\xed\xe8\xec\xe5\\\xce\xed\xe3\xee\xe8\xed\xe3\xe8\\!_35_\xcb\xe5\xf2\xee_2024\\JamClub-1\\\xdd\xf2\xee\xf2 \xec\xe8\xf0 \xf1\xeb\xe8\xf8\xea\xee\xec \xed\xe5\xf1\xee\xe2\xe5\xf0\xf8\xe5\xed\xe5\xed\\JamClub_Kono_Sekai_wa_Fukanzen_Sugiru_04_1080p_HEVC.mkv" -i "G:\\\xc0\xed\xe8\xec\xe5\\\xce\xed\xe3\xee\xe8\xed\xe3\xe8\\!_35_\xcb\xe5\xf2\xee_2024\\JamClub-1\\\xdd\xf2\xee\xf2 \xec\xe8\xf0 \xf1\xeb\xe8\xf8\xea\xee\xec \xed\xe5\xf1\xee\xe2\xe5\xf0\xf8\xe5\xed\xe5\xed\\JamClub_Kono_Sekai_wa_Fukanzen_Sugiru_04_1080p.mp4" -lavfi "[0:v]settb=AVTB,setpts=PTS-STARTPTS,format=pix_fmts=yuv420p10,fps=24000/1001,scale=1920:1080:flags=bicubic[main];[1:v]settb=AVTB,setpts=PTS-STARTPTS,format=pix_fmts=yuv420p,fps=24000/1001,scale=1920:1080:flags=bicubic[ref];[main][ref]ssim=eof_action=endall:stats_file='D\\:/Convert/FFMetrics/logs/ssim_logfile-6.txt'" -f null -
Input #0, matroska,webm, from 'G:\Аниме\Онгоинги\!_35_Лето_2024\JamClub-1\Этот мир слишком несовершенен\JamClub_Kono_Sekai_wa_Fukanzen_Sugiru_04_1080p_HEVC.mkv':
  Metadata:
    COMPATIBLE_BRANDS: isomiso2avc1mp41
    MAJOR_BRAND     : isom
    MINOR_VERSION   : 512
    ENCODER         : Lavf61.7.100
  Duration: 00:24:27.35, start: -0.001000, bitrate: 1235 kb/s
  Stream #0:0: Video: hevc (Main 10), yuv420p10le(tv, bt709, progressive), 1920x1080 [SAR 1:1 DAR 16:9], 23.98 fps, 23.98 tbr, 1k tbn (default)
      Metadata:
        HANDLER_NAME    : VideoHandler
        VENDOR_ID       : [0][0][0][0]
        ENCODER         : Lavc61.19.100 libx265
        BPS             : 1036507
        DURATION        : 00:24:27.215708333
        NUMBER_OF_FRAMES: 35178
        NUMBER_OF_BYTES : 190097331
        _STATISTICS_WRITING_APP: mkvpropedit v66.0.0 ('Josie') 64-bit
        _STATISTICS_WRITING_DATE_UTC: 2025-05-04 15:55:20
        _STATISTICS_TAGS: BPS DURATION NUMBER_OF_FRAMES NUMBER_OF_BYTES
  Stream #0:1(eng): Audio: aac (LC), 48000 Hz, stereo, fltp (default)
      Metadata:
        HANDLER_NAME    : SoundHandler
        VENDOR_ID       : [0][0][0][0]
        ENCODER         : Lavc61.19.100 aac
        BPS             : 195286
        DURATION        : 00:24:27.309000000
        NUMBER_OF_FRAMES: 68781
        NUMBER_OF_BYTES : 35818274
        _STATISTICS_WRITING_APP: mkvpropedit v66.0.0 ('Josie') 64-bit
        _STATISTICS_WRITING_DATE_UTC: 2025-05-04 15:55:20
        _STATISTICS_TAGS: BPS DURATION NUMBER_OF_FRAMES NUMBER_OF_BYTES
Input #1, mov,mp4,m4a,3gp,3g2,mj2, from 'G:\Аниме\Онгоинги\!_35_Лето_2024\JamClub-1\Этот мир слишком несовершенен\JamClub_Kono_Sekai_wa_Fukanzen_Sugiru_04_1080p.mp4':
  Metadata:
    major_brand     : isom
    minor_version   : 512
    compatible_brands: isomiso2avc1mp41
    encoder         : Lavf60.16.100
  Duration: 00:24:27.33, start: 0.000000, bitrate: 3512 kb/s
  Stream #1:0[0x1](und): Video: h264 (High) (avc1 / 0x31637661), yuv420p(progressive), 1920x1080 [SAR 1:1 DAR 16:9], 3315 kb/s, 23.98 fps, 23.98 tbr, 90k tbn (default)
      Metadata:
        handler_name    : VideoHandler
        vendor_id       : [0][0][0][0]
  Stream #1:1[0x2](eng): Audio: aac (LC) (mp4a / 0x6134706D), 48000 Hz, stereo, fltp, 191 kb/s (default)
      Metadata:
        handler_name    : SoundHandler
        vendor_id       : [0][0][0][0]
Stream mapping:
  Stream #0:0 (hevc) -> settb:default
  Stream #1:0 (h264) -> settb:default
  ssim:default -> Stream #0:0 (wrapped_avframe)
  Stream #0:1 -> #0:1 (aac (native) -> pcm_s16le (native))
Output #0, null, to 'pipe:':
  Metadata:
    COMPATIBLE_BRANDS: isomiso2avc1mp41
    MAJOR_BRAND     : isom
    MINOR_VERSION   : 512
    encoder         : Lavf61.7.100
  Stream #0:0: Video: wrapped_avframe, yuv420p10le(tv, bt709, progressive), 1920x1080 [SAR 1:1 DAR 16:9], q=2-31, 200 kb/s, 23.98 fps, 23.98 tbn
      Metadata:
        encoder         : Lavc61.19.100 wrapped_avframe
  Stream #0:1(eng): Audio: pcm_s16le, 48000 Hz, stereo, s16, 1536 kb/s (default)
      Metadata:
        HANDLER_NAME    : SoundHandler
        VENDOR_ID       : [0][0][0][0]
        _STATISTICS_TAGS: BPS DURATION NUMBER_OF_FRAMES NUMBER_OF_BYTES
        BPS             : 195286
        DURATION        : 00:24:27.309000000
        NUMBER_OF_FRAMES: 68781
        NUMBER_OF_BYTES : 35818274
        _STATISTICS_WRITING_APP: mkvpropedit v66.0.0 ('Josie') 64-bit
        _STATISTICS_WRITING_DATE_UTC: 2025-05-04 15:55:20
        encoder         : Lavc61.19.100 pcm_s16le
frame=  112 fps=0.0 q=-0.0 size=N/A time=00:00:04.67 bitrate=N/A speed=8.96x    frame=  269 fps=258 q=-0.0 size=N/A time=00:00:11.21 bitrate=N/A speed=10.7x    frame=  460 fps=294 q=-0.0 size=N/A time=00:00:19.18 bitrate=N/A speed=12.2x    frame=  635 fps=306 q=-0.0 size=N/A time=00:00:26.48 bitrate=N/A speed=12.8x    frame=  875 fps=337 q=-0.0 size=N/A time=00:00:36.49 bitrate=N/A speed=14.1x    frame= 1110 fps=356 q=-0.0 size=N/A time=00:00:46.29 bitrate=N/A speed=14.8x    frame= 1332 fps=367 q=-0.0 size=N/A time=00:00:55.55 bitrate=N/A speed=15.3x    frame= 1581 fps=381 q=-0.0 size=N/A time=00:01:05.94 bitrate=N/A speed=15.9x    frame= 1816 fps=390 q=-0.0 size=N/A time=00:01:15.74 bitrate=N/A speed=16.3x    frame= 2027 fps=391 q=-0.0 size=N/A time=00:01:24.54 bitrate=N/A speed=16.3x    frame= 2246 fps=395 q=-0.0 size=N/A time=00:01:33.67 bitrate=N/A speed=16.5x    frame= 2487 fps=400 q=-0.0 size=N/A time=00:01:43.72 bitrate=N/A speed=16.7x    frame= 2734 fps=407 q=-0.0 size=N/A time=00:01:54.03 bitrate=N/A speed=  17x    frame= 2991 fps=413 q=-0.0 size=N/A time=00:02:04.74 bitrate=N/A speed=17.2x    frame= 3228 fps=416 q=-0.0 size=N/A time=00:02:14.63 bitrate=N/A speed=17.4x    frame= 3469 fps=419 q=-0.0 size=N/A time=00:02:24.68 bitrate=N/A speed=17.5x    frame= 3685 fps=420 q=-0.0 size=N/A time=00:02:33.69 bitrate=N/A speed=17.5x    frame= 3934 fps=423 q=-0.0 size=N/A time=00:02:44.08 bitrate=N/A speed=17.6x    frame= 4196 fps=428 q=-0.0 size=N/A time=00:02:55.00 bitrate=N/A speed=17.8x    frame= 4394 fps=425 q=-0.0 size=N/A time=00:03:03.26 bitrate=N/A speed=17.7x    frame= 4515 fps=416 q=-0.0 size=N/A time=00:03:08.31 bitrate=N/A speed=17.4x    frame= 4664 fps=410 q=-0.0 size=N/A time=00:03:14.52 bitrate=N/A speed=17.1x    frame= 4845 fps=408 q=-0.0 size=N/A time=00:03:22.07 bitrate=N/A speed=  17x    frame= 5085 fps=410 q=-0.0 size=N/A time=00:03:32.08 bitrate=N/A speed=17.1x    frame= 5299 fps=411 q=-0.0 size=N/A time=00:03:41.01 bitrate=N/A speed=17.1x    frame= 5485 fps=408 q=-0.0 size=N/A time=00:03:48.77 bitrate=N/A speed=  17x    frame= 5690 fps=408 q=-0.0 size=N/A time=00:03:57.32 bitrate=N/A speed=  17x    frame= 5869 fps=406 q=-0.0 size=N/A time=00:04:04.78 bitrate=N/A speed=16.9x    frame= 6053 fps=404 q=-0.0 size=N/A time=00:04:12.46 bitrate=N/A speed=16.9x    frame= 6221 fps=402 q=-0.0 size=N/A time=00:04:19.46 bitrate=N/A speed=16.7x    frame= 6443 fps=403 q=-0.0 size=N/A time=00:04:28.72 bitrate=N/A speed=16.8x    frame= 6665 fps=403 q=-0.0 size=N/A time=00:04:37.98 bitrate=N/A speed=16.8x    frame= 6893 fps=405 q=-0.0 size=N/A time=00:04:47.49 bitrate=N/A speed=16.9x    frame= 7112 fps=405 q=-0.0 size=N/A time=00:04:56.62 bitrate=N/A speed=16.9x    frame= 7339 fps=406 q=-0.0 size=N/A time=00:05:06.09 bitrate=N/A speed=16.9x    frame= 7598 fps=409 q=-0.0 size=N/A time=00:05:16.89 bitrate=N/A speed=17.1x    frame= 7854 fps=411 q=-0.0 size=N/A time=00:05:27.57 bitrate=N/A speed=17.2x    frame= 8069 fps=411 q=-0.0 size=N/A time=00:05:36.54 bitrate=N/A speed=17.2x    frame= 8321 fps=413 q=-0.0 size=N/A time=00:05:47.05 bitrate=N/A speed=17.2x    frame= 8575 fps=415 q=-0.0 size=N/A time=00:05:57.64 bitrate=N/A speed=17.3x    frame= 8811 fps=416 q=-0.0 size=N/A time=00:06:07.49 bitrate=N/A speed=17.4x    frame= 9053 fps=418 q=-0.0 size=N/A time=00:06:17.58 bitrate=N/A speed=17.4x    frame= 9308 fps=419 q=-0.0 size=N/A time=00:06:28.22 bitrate=N/A speed=17.5x    frame= 9568 fps=421 q=-0.0 size=N/A time=00:06:39.06 bitrate=N/A speed=17.6x    frame= 9826 fps=423 q=-0.0 size=N/A time=00:06:49.82 bitrate=N/A speed=17.6x    frame=10093 fps=425 q=-0.0 size=N/A time=00:07:00.96 bitrate=N/A speed=17.7x    frame=10319 fps=425 q=-0.0 size=N/A time=00:07:10.38 bitrate=N/A speed=17.7x    frame=10531 fps=425 q=-0.0 size=N/A time=00:07:19.23 bitrate=N/A speed=17.7x    frame=10775 fps=426 q=-0.0 size=N/A time=00:07:29.40 bitrate=N/A speed=17.8x    frame=11015 fps=427 q=-0.0 size=N/A time=00:07:39.41 bitrate=N/A speed=17.8x    frame=11249 fps=427 q=-0.0 size=N/A time=00:07:49.17 bitrate=N/A speed=17.8x    frame=11471 fps=427 q=-0.0 size=N/A time=00:07:58.43 bitrate=N/A speed=17.8x    frame=11680 fps=427 q=-0.0 size=N/A time=00:08:07.15 bitrate=N/A speed=17.8x    frame=11907 fps=427 q=-0.0 size=N/A time=00:08:16.62 bitrate=N/A speed=17.8x    frame=12142 fps=428 q=-0.0 size=N/A time=00:08:26.42 bitrate=N/A speed=17.8x    frame=12388 fps=429 q=-0.0 size=N/A time=00:08:36.68 bitrate=N/A speed=17.9x    frame=12639 fps=430 q=-0.0 size=N/A time=00:08:47.15 bitrate=N/A speed=17.9x    frame=12865 fps=430 q=-0.0 size=N/A time=00:08:56.57 bitrate=N/A speed=17.9x    frame=13133 fps=431 q=-0.0 size=N/A time=00:09:07.75 bitrate=N/A speed=  18x    frame=13409 fps=433 q=-0.0 size=N/A time=00:09:19.26 bitrate=N/A speed=18.1x    frame=13685 fps=435 q=-0.0 size=N/A time=00:09:30.77 bitrate=N/A speed=18.1x    frame=13892 fps=434 q=-0.0 size=N/A time=00:09:39.41 bitrate=N/A speed=18.1x    frame=14126 fps=435 q=-0.0 size=N/A time=00:09:49.17 bitrate=N/A speed=18.1x    frame=14385 fps=436 q=-0.0 size=N/A time=00:09:59.97 bitrate=N/A speed=18.2x    frame=14669 fps=437 q=-0.0 size=N/A time=00:10:11.81 bitrate=N/A speed=18.2x    frame=14943 fps=439 q=-0.0 size=N/A time=00:10:23.24 bitrate=N/A speed=18.3x    frame=15211 fps=440 q=-0.0 size=N/A time=00:10:34.42 bitrate=N/A speed=18.4x    frame=15477 fps=441 q=-0.0 size=N/A time=00:10:45.51 bitrate=N/A speed=18.4x    frame=15731 fps=442 q=-0.0 size=N/A time=00:10:56.11 bitrate=N/A speed=18.4x    frame=15992 fps=443 q=-0.0 size=N/A time=00:11:06.99 bitrate=N/A speed=18.5x    frame=16246 fps=443 q=-0.0 size=N/A time=00:11:17.59 bitrate=N/A speed=18.5x    frame=16496 fps=444 q=-0.0 size=N/A time=00:11:28.02 bitrate=N/A speed=18.5x    frame=16782 fps=446 q=-0.0 size=N/A time=00:11:39.94 bitrate=N/A speed=18.6x    frame=17045 fps=446 q=-0.0 size=N/A time=00:11:50.91 bitrate=N/A speed=18.6x    frame=17287 fps=447 q=-0.0 size=N/A time=00:12:01.01 bitrate=N/A speed=18.6x    frame=17543 fps=447 q=-0.0 size=N/A time=00:12:11.68 bitrate=N/A speed=18.7x    frame=17794 fps=448 q=-0.0 size=N/A time=00:12:22.15 bitrate=N/A speed=18.7x    frame=18075 fps=449 q=-0.0 size=N/A time=00:12:33.87 bitrate=N/A speed=18.7x    frame=18325 fps=450 q=-0.0 size=N/A time=00:12:44.30 bitrate=N/A speed=18.8x    frame=18575 fps=450 q=-0.0 size=N/A time=00:12:54.73 bitrate=N/A speed=18.8x    frame=18818 fps=450 q=-0.0 size=N/A time=00:13:04.86 bitrate=N/A speed=18.8x    frame=19047 fps=450 q=-0.0 size=N/A time=00:13:14.41 bitrate=N/A speed=18.8x    frame=19314 fps=451 q=-0.0 size=N/A time=00:13:25.55 bitrate=N/A speed=18.8x    frame=19559 fps=451 q=-0.0 size=N/A time=00:13:35.77 bitrate=N/A speed=18.8x    frame=19778 fps=451 q=-0.0 size=N/A time=00:13:44.90 bitrate=N/A speed=18.8x    frame=19989 fps=451 q=-0.0 size=N/A time=00:13:53.70 bitrate=N/A speed=18.8x    frame=20204 fps=450 q=-0.0 size=N/A time=00:14:02.67 bitrate=N/A speed=18.8x    frame=20475 fps=451 q=-0.0 size=N/A time=00:14:13.97 bitrate=N/A speed=18.8x    frame=20717 fps=451 q=-0.0 size=N/A time=00:14:24.07 bitrate=N/A speed=18.8x    frame=20941 fps=451 q=-0.0 size=N/A time=00:14:33.41 bitrate=N/A speed=18.8x    frame=21144 fps=450 q=-0.0 size=N/A time=00:14:41.88 bitrate=N/A speed=18.8x    frame=21372 fps=450 q=-0.0 size=N/A time=00:14:51.39 bitrate=N/A speed=18.8x    frame=21628 fps=451 q=-0.0 size=N/A time=00:15:02.06 bitrate=N/A speed=18.8x    frame=21893 fps=451 q=-0.0 size=N/A time=00:15:13.12 bitrate=N/A speed=18.8x    frame=22155 fps=452 q=-0.0 size=N/A time=00:15:24.04 bitrate=N/A speed=18.9x    frame=22421 fps=453 q=-0.0 size=N/A time=00:15:35.14 bitrate=N/A speed=18.9x    frame=22649 fps=453 q=-0.0 size=N/A time=00:15:44.65 bitrate=N/A speed=18.9x    frame=22901 fps=453 q=-0.0 size=N/A time=00:15:55.16 bitrate=N/A speed=18.9x    frame=23163 fps=454 q=-0.0 size=N/A time=00:16:06.09 bitrate=N/A speed=18.9x    frame=23407 fps=454 q=-0.0 size=N/A time=00:16:16.26 bitrate=N/A speed=18.9x    frame=23661 fps=454 q=-0.0 size=N/A time=00:16:26.86 bitrate=N/A speed=18.9x    frame=23922 fps=455 q=-0.0 size=N/A time=00:16:37.74 bitrate=N/A speed=  19x    frame=24190 fps=455 q=-0.0 size=N/A time=00:16:48.92 bitrate=N/A speed=  19x    frame=24446 fps=456 q=-0.0 size=N/A time=00:16:59.60 bitrate=N/A speed=  19x    frame=24715 fps=456 q=-0.0 size=N/A time=00:17:10.82 bitrate=N/A speed=  19x    frame=24939 fps=456 q=-0.0 size=N/A time=00:17:20.16 bitrate=N/A speed=  19x    frame=25155 fps=456 q=-0.0 size=N/A time=00:17:29.17 bitrate=N/A speed=  19x    frame=25407 fps=456 q=-0.0 size=N/A time=00:17:39.68 bitrate=N/A speed=  19x    frame=25677 fps=457 q=-0.0 size=N/A time=00:17:50.94 bitrate=N/A speed=  19x    frame=25937 fps=457 q=-0.0 size=N/A time=00:18:01.78 bitrate=N/A speed=19.1x    frame=26195 fps=457 q=-0.0 size=N/A time=00:18:12.54 bitrate=N/A speed=19.1x    frame=26453 fps=458 q=-0.0 size=N/A time=00:18:23.31 bitrate=N/A speed=19.1x    frame=26723 fps=459 q=-0.0 size=N/A time=00:18:34.57 bitrate=N/A speed=19.1x    frame=26973 fps=459 q=-0.0 size=N/A time=00:18:44.99 bitrate=N/A speed=19.1x    frame=27235 fps=459 q=-0.0 size=N/A time=00:18:55.92 bitrate=N/A speed=19.1x    frame=27500 fps=460 q=-0.0 size=N/A time=00:19:06.97 bitrate=N/A speed=19.2x    frame=27768 fps=460 q=-0.0 size=N/A time=00:19:18.15 bitrate=N/A speed=19.2x    frame=28026 fps=460 q=-0.0 size=N/A time=00:19:28.91 bitrate=N/A speed=19.2x    frame=28289 fps=461 q=-0.0 size=N/A time=00:19:39.88 bitrate=N/A speed=19.2x    frame=28538 fps=461 q=-0.0 size=N/A time=00:19:50.27 bitrate=N/A speed=19.2x    frame=28795 fps=461 q=-0.0 size=N/A time=00:20:00.99 bitrate=N/A speed=19.2x    frame=29072 fps=462 q=-0.0 size=N/A time=00:20:12.54 bitrate=N/A speed=19.3x    frame=29329 fps=462 q=-0.0 size=N/A time=00:20:23.26 bitrate=N/A speed=19.3x    frame=29601 fps=463 q=-0.0 size=N/A time=00:20:34.60 bitrate=N/A speed=19.3x    frame=29892 fps=463 q=-0.0 size=N/A time=00:20:46.74 bitrate=N/A speed=19.3x    frame=30160 fps=464 q=-0.0 size=N/A time=00:20:57.92 bitrate=N/A speed=19.4x    frame=30450 fps=465 q=-0.0 size=N/A time=00:21:10.01 bitrate=N/A speed=19.4x    frame=30723 fps=465 q=-0.0 size=N/A time=00:21:21.40 bitrate=N/A speed=19.4x    frame=31010 fps=466 q=-0.0 size=N/A time=00:21:33.37 bitrate=N/A speed=19.4x    frame=31253 fps=466 q=-0.0 size=N/A time=00:21:43.51 bitrate=N/A speed=19.4x    frame=31514 fps=466 q=-0.0 size=N/A time=00:21:54.39 bitrate=N/A speed=19.4x    frame=31766 fps=466 q=-0.0 size=N/A time=00:22:04.90 bitrate=N/A speed=19.5x    frame=31989 fps=466 q=-0.0 size=N/A time=00:22:14.20 bitrate=N/A speed=19.4x    frame=32251 fps=467 q=-0.0 size=N/A time=00:22:25.13 bitrate=N/A speed=19.5x    frame=32502 fps=467 q=-0.0 size=N/A time=00:22:35.60 bitrate=N/A speed=19.5x    frame=32775 fps=467 q=-0.0 size=N/A time=00:22:46.99 bitrate=N/A speed=19.5x    frame=33028 fps=467 q=-0.0 size=N/A time=00:22:57.54 bitrate=N/A speed=19.5x    frame=33243 fps=467 q=-0.0 size=N/A time=00:23:06.51 bitrate=N/A speed=19.5x    frame=33442 fps=466 q=-0.0 size=N/A time=00:23:14.81 bitrate=N/A speed=19.5x    frame=33660 fps=466 q=-0.0 size=N/A time=00:23:23.90 bitrate=N/A speed=19.4x    frame=33876 fps=466 q=-0.0 size=N/A time=00:23:32.91 bitrate=N/A speed=19.4x    frame=34028 fps=465 q=-0.0 size=N/A time=00:23:39.25 bitrate=N/A speed=19.4x    frame=34232 fps=464 q=-0.0 size=N/A time=00:23:47.75 bitrate=N/A speed=19.4x    frame=34420 fps=463 q=-0.0 size=N/A time=00:23:55.60 bitrate=N/A speed=19.3x    frame=34606 fps=463 q=-0.0 size=N/A time=00:24:03.35 bitrate=N/A speed=19.3x    frame=34818 fps=462 q=-0.0 size=N/A time=00:24:12.20 bitrate=N/A speed=19.3x    frame=35047 fps=462 q=-0.0 size=N/A time=00:24:21.75 bitrate=N/A speed=19.3x    [Parsed_ssim_10 @ 000001cca3f36d80] SSIM Y:0.993436 (21.828030) U:0.993679 (21.991986) V:0.994188 (22.357104) All:0.993602 (21.939279)
[out#0/null @ 000001cc98106e00] video:15116KiB audio:275124KiB subtitle:0KiB other streams:0KiB global headers:0KiB muxing overhead: unknown
frame=35178 fps=462 q=-0.0 Lsize=N/A time=00:24:27.21 bitrate=N/A speed=19.3x    
